<svg xmlns="http://www.w3.org/2000/svg" width="108" height="20" viewBox="0 0 108 20" fill="none">
    <path d="M17.4727 8.17407C17.4215 8.03061 17.3283 7.90459 17.2044 7.81131C17.0806 7.71804 16.9314 7.6615 16.7749 7.64856L12.1581 6.99755L10.089 2.94246C10.0226 2.80985 9.91886 2.69801 9.78971 2.61976C9.66056 2.5415 9.51121 2.5 9.35879 2.5C9.20636 2.5 9.05702 2.5415 8.92786 2.61976C8.79871 2.69801 8.69497 2.80985 8.62853 2.94246L6.55947 6.98971L1.94263 7.64856C1.79246 7.66919 1.65128 7.7301 1.53511 7.82438C1.41894 7.91865 1.33243 8.04252 1.2854 8.18192C1.24235 8.31814 1.23849 8.46312 1.27423 8.6013C1.30996 8.73949 1.38395 8.86566 1.48825 8.96627L4.83931 12.1037L4.02792 16.5588C3.99895 16.7058 4.01412 16.8578 4.07163 16.9968C4.12914 17.1358 4.22659 17.256 4.35248 17.3431C4.47517 17.4279 4.61989 17.478 4.77038 17.4877C4.92088 17.4974 5.07119 17.4663 5.20444 17.398L9.35879 15.3038L13.4969 17.4059C13.6108 17.468 13.7394 17.5004 13.8701 17.5C14.042 17.5006 14.2097 17.4484 14.3489 17.351C14.4748 17.2638 14.5722 17.1436 14.6297 17.0046C14.6872 16.8657 14.7024 16.7137 14.6734 16.5666L13.862 12.1115L17.2131 8.97411C17.3302 8.87817 17.4168 8.75206 17.4628 8.61045C17.5088 8.46883 17.5122 8.31751 17.4727 8.17407ZM12.4827 11.3115C12.3875 11.4004 12.3163 11.5106 12.2753 11.6323C12.2343 11.7539 12.2247 11.8835 12.2474 12.0095L12.8316 15.296L9.78071 13.7273C9.66332 13.6668 9.53236 13.6352 9.39936 13.6352C9.26636 13.6352 9.1354 13.6668 9.018 13.7273L5.96715 15.296L6.55136 12.0095C6.57403 11.8835 6.56443 11.7539 6.52342 11.6323C6.4824 11.5106 6.41121 11.4004 6.31605 11.3115L3.88187 8.95842L7.29784 8.47997C7.42929 8.4623 7.55424 8.41373 7.66175 8.33851C7.76926 8.2633 7.85605 8.16375 7.9145 8.04858L9.35879 5.0602L10.8842 8.05642C10.9427 8.17159 11.0295 8.27115 11.137 8.34636C11.2445 8.42157 11.3694 8.47014 11.5009 8.48781L14.9168 8.96627L12.4827 11.3115Z" fill="#F05340"/>
    <path d="M17.4727 8.17407C17.4215 8.03061 17.3283 7.90459 17.2044 7.81131C17.0806 7.71804 16.9314 7.6615 16.7749 7.64856L12.1581 6.99755L10.089 2.94246C10.0226 2.80985 9.91886 2.69801 9.78971 2.61976C9.66056 2.5415 9.51121 2.5 9.35879 2.5C9.20636 2.5 9.05702 2.5415 8.92786 2.61976C8.79871 2.69801 8.69497 2.80985 8.62853 2.94246L6.55947 6.98971L1.94263 7.64856C1.79246 7.66919 1.65128 7.7301 1.53511 7.82438C1.41894 7.91865 1.33243 8.04252 1.2854 8.18192C1.24235 8.31814 1.23849 8.46312 1.27423 8.6013C1.30996 8.73949 1.38395 8.86566 1.48825 8.96627L4.83931 12.1037L4.02792 16.5588C3.99895 16.7058 4.01412 16.8578 4.07163 16.9968C4.12914 17.1358 4.22659 17.256 4.35248 17.3431C4.47517 17.4279 4.61989 17.478 4.77038 17.4877C4.92088 17.4974 5.07119 17.4663 5.20444 17.398L9.35879 15.3038L13.4969 17.4059C13.6108 17.468 13.7394 17.5004 13.8701 17.5C14.042 17.5006 14.2097 17.4484 14.3489 17.351C14.4748 17.2638 14.5722 17.1436 14.6297 17.0046C14.6872 16.8657 14.7024 16.7137 14.6734 16.5666L13.862 12.1115L17.2131 8.97411C17.3302 8.87817 17.4168 8.75206 17.4628 8.61045C17.5088 8.46883 17.5122 8.31751 17.4727 8.17407ZM12.4827 11.3115C12.3875 11.4004 12.3163 11.5106 12.2753 11.6323C12.2343 11.7539 12.2247 11.8835 12.2474 12.0095L12.8316 15.296L9.78071 13.7273C9.66332 13.6668 9.53236 13.6352 9.39936 13.6352C9.26636 13.6352 9.1354 13.6668 9.018 13.7273L5.96715 15.296L6.55136 12.0095C6.57403 11.8835 6.56443 11.7539 6.52342 11.6323C6.4824 11.5106 6.41121 11.4004 6.31605 11.3115L3.88187 8.95842L7.29784 8.47997C7.42929 8.4623 7.55424 8.41373 7.66175 8.33851C7.76926 8.2633 7.85605 8.16375 7.9145 8.04858L9.35879 5.0602L10.8842 8.05642C10.9427 8.17159 11.0295 8.27115 11.137 8.34636C11.2445 8.42157 11.3694 8.47014 11.5009 8.48781L14.9168 8.96627L12.4827 11.3115Z" fill="#F05340"/>
    <path d="M12.4827 11.3115C12.3875 11.4004 12.3163 11.5106 12.2753 11.6323C12.2343 11.7539 12.2247 11.8835 12.2474 12.0095L12.8316 15.296L9.78071 13.7273C9.66332 13.6668 9.53236 13.6352 9.39936 13.6352C9.26636 13.6352 9.1354 13.6668 9.018 13.7273L5.96715 15.296L6.55136 12.0095C6.57403 11.8835 6.56443 11.7539 6.52342 11.6323C6.4824 11.5106 6.41121 11.4004 6.31605 11.3115L3.88187 8.95842L7.29784 8.47997C7.42929 8.4623 7.55424 8.41373 7.66175 8.33851C7.76926 8.2633 7.85605 8.16375 7.9145 8.04858L9.35879 5.0602L10.8842 8.05642C10.9427 8.17159 11.0295 8.27115 11.137 8.34636C11.2445 8.42157 11.3694 8.47014 11.5009 8.48781L14.9168 8.96627L12.4827 11.3115Z" fill="#F05340"/>
    <path d="M12.4827 11.3115C12.3875 11.4004 12.3163 11.5106 12.2753 11.6323C12.2343 11.7539 12.2247 11.8835 12.2474 12.0095L12.8316 15.296L9.78071 13.7273C9.66332 13.6668 9.53236 13.6352 9.39936 13.6352C9.26636 13.6352 9.1354 13.6668 9.018 13.7273L5.96715 15.296L6.55136 12.0095C6.57403 11.8835 6.56443 11.7539 6.52342 11.6323C6.4824 11.5106 6.41121 11.4004 6.31605 11.3115L3.88187 8.95842L7.29784 8.47997C7.42929 8.4623 7.55424 8.41373 7.66175 8.33851C7.76926 8.2633 7.85605 8.16375 7.9145 8.04858L9.35879 5.0602L10.8842 8.05642C10.9427 8.17159 11.0295 8.27115 11.137 8.34636C11.2445 8.42157 11.3694 8.47014 11.5009 8.48781L14.9168 8.96627L12.4827 11.3115Z" fill="#F05340"/>
    <path d="M39.4727 8.17407C39.4215 8.03061 39.3283 7.90459 39.2044 7.81131C39.0806 7.71804 38.9314 7.6615 38.7749 7.64856L34.1581 6.99755L32.089 2.94246C32.0226 2.80985 31.9189 2.69801 31.7897 2.61976C31.6606 2.5415 31.5112 2.5 31.3588 2.5C31.2064 2.5 31.057 2.5415 30.9279 2.61976C30.7987 2.69801 30.695 2.80985 30.6285 2.94246L28.5595 6.98971L23.9426 7.64856C23.7925 7.66919 23.6513 7.7301 23.5351 7.82438C23.4189 7.91865 23.3324 8.04252 23.2854 8.18192C23.2424 8.31814 23.2385 8.46312 23.2742 8.6013C23.31 8.73949 23.384 8.86566 23.4882 8.96627L26.8393 12.1037L26.0279 16.5588C25.999 16.7058 26.0141 16.8578 26.0716 16.9968C26.1291 17.1358 26.2266 17.256 26.3525 17.3431C26.4752 17.4279 26.6199 17.478 26.7704 17.4877C26.9209 17.4974 27.0712 17.4663 27.2044 17.398L31.3588 15.3038L35.4969 17.4059C35.6108 17.468 35.7394 17.5004 35.8701 17.5C36.042 17.5006 36.2097 17.4484 36.3489 17.351C36.4748 17.2638 36.5722 17.1436 36.6297 17.0046C36.6872 16.8657 36.7024 16.7137 36.6734 16.5666L35.862 12.1115L39.2131 8.97411C39.3302 8.87817 39.4168 8.75206 39.4628 8.61045C39.5088 8.46883 39.5122 8.31751 39.4727 8.17407ZM34.4827 11.3115C34.3875 11.4004 34.3163 11.5106 34.2753 11.6323C34.2343 11.7539 34.2247 11.8835 34.2474 12.0095L34.8316 15.296L31.7807 13.7273C31.6633 13.6668 31.5324 13.6352 31.3994 13.6352C31.2664 13.6352 31.1354 13.6668 31.018 13.7273L27.9672 15.296L28.5514 12.0095C28.574 11.8835 28.5644 11.7539 28.5234 11.6323C28.4824 11.5106 28.4112 11.4004 28.3161 11.3115L25.8819 8.95842L29.2978 8.47997C29.4293 8.4623 29.5542 8.41373 29.6618 8.33851C29.7693 8.2633 29.856 8.16375 29.9145 8.04858L31.3588 5.0602L32.8842 8.05642C32.9427 8.17159 33.0295 8.27115 33.137 8.34636C33.2445 8.42157 33.3694 8.47014 33.5009 8.48781L36.9168 8.96627L34.4827 11.3115Z" fill="#F05340"/>
    <path d="M39.4727 8.17407C39.4215 8.03061 39.3283 7.90459 39.2044 7.81131C39.0806 7.71804 38.9314 7.6615 38.7749 7.64856L34.1581 6.99755L32.089 2.94246C32.0226 2.80985 31.9189 2.69801 31.7897 2.61976C31.6606 2.5415 31.5112 2.5 31.3588 2.5C31.2064 2.5 31.057 2.5415 30.9279 2.61976C30.7987 2.69801 30.695 2.80985 30.6285 2.94246L28.5595 6.98971L23.9426 7.64856C23.7925 7.66919 23.6513 7.7301 23.5351 7.82438C23.4189 7.91865 23.3324 8.04252 23.2854 8.18192C23.2424 8.31814 23.2385 8.46312 23.2742 8.6013C23.31 8.73949 23.384 8.86566 23.4882 8.96627L26.8393 12.1037L26.0279 16.5588C25.999 16.7058 26.0141 16.8578 26.0716 16.9968C26.1291 17.1358 26.2266 17.256 26.3525 17.3431C26.4752 17.4279 26.6199 17.478 26.7704 17.4877C26.9209 17.4974 27.0712 17.4663 27.2044 17.398L31.3588 15.3038L35.4969 17.4059C35.6108 17.468 35.7394 17.5004 35.8701 17.5C36.042 17.5006 36.2097 17.4484 36.3489 17.351C36.4748 17.2638 36.5722 17.1436 36.6297 17.0046C36.6872 16.8657 36.7024 16.7137 36.6734 16.5666L35.862 12.1115L39.2131 8.97411C39.3302 8.87817 39.4168 8.75206 39.4628 8.61045C39.5088 8.46883 39.5122 8.31751 39.4727 8.17407ZM34.4827 11.3115C34.3875 11.4004 34.3163 11.5106 34.2753 11.6323C34.2343 11.7539 34.2247 11.8835 34.2474 12.0095L34.8316 15.296L31.7807 13.7273C31.6633 13.6668 31.5324 13.6352 31.3994 13.6352C31.2664 13.6352 31.1354 13.6668 31.018 13.7273L27.9672 15.296L28.5514 12.0095C28.574 11.8835 28.5644 11.7539 28.5234 11.6323C28.4824 11.5106 28.4112 11.4004 28.3161 11.3115L25.8819 8.95842L29.2978 8.47997C29.4293 8.4623 29.5542 8.41373 29.6618 8.33851C29.7693 8.2633 29.856 8.16375 29.9145 8.04858L31.3588 5.0602L32.8842 8.05642C32.9427 8.17159 33.0295 8.27115 33.137 8.34636C33.2445 8.42157 33.3694 8.47014 33.5009 8.48781L36.9168 8.96627L34.4827 11.3115Z" fill="#F05340"/>
    <path d="M34.4827 11.3115C34.3875 11.4004 34.3163 11.5106 34.2753 11.6323C34.2343 11.7539 34.2247 11.8835 34.2474 12.0095L34.8316 15.296L31.7807 13.7273C31.6633 13.6668 31.5324 13.6352 31.3994 13.6352C31.2664 13.6352 31.1354 13.6668 31.018 13.7273L27.9672 15.296L28.5514 12.0095C28.574 11.8835 28.5644 11.7539 28.5234 11.6323C28.4824 11.5106 28.4112 11.4004 28.3161 11.3115L25.8819 8.95842L29.2978 8.47997C29.4293 8.4623 29.5542 8.41373 29.6618 8.33851C29.7693 8.2633 29.856 8.16375 29.9145 8.04858L31.3588 5.0602L32.8842 8.05642C32.9427 8.17159 33.0295 8.27115 33.137 8.34636C33.2445 8.42157 33.3694 8.47014 33.5009 8.48781L36.9168 8.96627L34.4827 11.3115Z" fill="#F05340"/>
    <path d="M34.4827 11.3115C34.3875 11.4004 34.3163 11.5106 34.2753 11.6323C34.2343 11.7539 34.2247 11.8835 34.2474 12.0095L34.8316 15.296L31.7807 13.7273C31.6633 13.6668 31.5324 13.6352 31.3994 13.6352C31.2664 13.6352 31.1354 13.6668 31.018 13.7273L27.9672 15.296L28.5514 12.0095C28.574 11.8835 28.5644 11.7539 28.5234 11.6323C28.4824 11.5106 28.4112 11.4004 28.3161 11.3115L25.8819 8.95842L29.2978 8.47997C29.4293 8.4623 29.5542 8.41373 29.6618 8.33851C29.7693 8.2633 29.856 8.16375 29.9145 8.04858L31.3588 5.0602L32.8842 8.05642C32.9427 8.17159 33.0295 8.27115 33.137 8.34636C33.2445 8.42157 33.3694 8.47014 33.5009 8.48781L36.9168 8.96627L34.4827 11.3115Z" fill="#F05340"/>
    <path d="M61.4727 8.17407C61.4215 8.03061 61.3283 7.90459 61.2044 7.81131C61.0806 7.71804 60.9314 7.6615 60.7749 7.64856L56.1581 6.99755L54.089 2.94246C54.0226 2.80985 53.9189 2.69801 53.7897 2.61976C53.6606 2.5415 53.5112 2.5 53.3588 2.5C53.2064 2.5 53.057 2.5415 52.9279 2.61976C52.7987 2.69801 52.695 2.80985 52.6285 2.94246L50.5595 6.98971L45.9426 7.64856C45.7925 7.66919 45.6513 7.7301 45.5351 7.82438C45.4189 7.91865 45.3324 8.04252 45.2854 8.18192C45.2424 8.31814 45.2385 8.46312 45.2742 8.6013C45.31 8.73949 45.384 8.86566 45.4882 8.96627L48.8393 12.1037L48.0279 16.5588C47.999 16.7058 48.0141 16.8578 48.0716 16.9968C48.1291 17.1358 48.2266 17.256 48.3525 17.3431C48.4752 17.4279 48.6199 17.478 48.7704 17.4877C48.9209 17.4974 49.0712 17.4663 49.2044 17.398L53.3588 15.3038L57.4969 17.4059C57.6108 17.468 57.7394 17.5004 57.8701 17.5C58.042 17.5006 58.2097 17.4484 58.3489 17.351C58.4748 17.2638 58.5722 17.1436 58.6297 17.0046C58.6872 16.8657 58.7024 16.7137 58.6734 16.5666L57.862 12.1115L61.2131 8.97411C61.3302 8.87817 61.4168 8.75206 61.4628 8.61045C61.5088 8.46883 61.5122 8.31751 61.4727 8.17407ZM56.4827 11.3115C56.3875 11.4004 56.3163 11.5106 56.2753 11.6323C56.2343 11.7539 56.2247 11.8835 56.2474 12.0095L56.8316 15.296L53.7807 13.7273C53.6633 13.6668 53.5324 13.6352 53.3994 13.6352C53.2664 13.6352 53.1354 13.6668 53.018 13.7273L49.9672 15.296L50.5514 12.0095C50.574 11.8835 50.5644 11.7539 50.5234 11.6323C50.4824 11.5106 50.4112 11.4004 50.3161 11.3115L47.8819 8.95842L51.2978 8.47997C51.4293 8.4623 51.5542 8.41373 51.6618 8.33851C51.7693 8.2633 51.856 8.16375 51.9145 8.04858L53.3588 5.0602L54.8842 8.05642C54.9427 8.17159 55.0295 8.27115 55.137 8.34636C55.2445 8.42157 55.3694 8.47014 55.5009 8.48781L58.9168 8.96627L56.4827 11.3115Z" fill="#F05340"/>
    <path d="M61.4727 8.17407C61.4215 8.03061 61.3283 7.90459 61.2044 7.81131C61.0806 7.71804 60.9314 7.6615 60.7749 7.64856L56.1581 6.99755L54.089 2.94246C54.0226 2.80985 53.9189 2.69801 53.7897 2.61976C53.6606 2.5415 53.5112 2.5 53.3588 2.5C53.2064 2.5 53.057 2.5415 52.9279 2.61976C52.7987 2.69801 52.695 2.80985 52.6285 2.94246L50.5595 6.98971L45.9426 7.64856C45.7925 7.66919 45.6513 7.7301 45.5351 7.82438C45.4189 7.91865 45.3324 8.04252 45.2854 8.18192C45.2424 8.31814 45.2385 8.46312 45.2742 8.6013C45.31 8.73949 45.384 8.86566 45.4882 8.96627L48.8393 12.1037L48.0279 16.5588C47.999 16.7058 48.0141 16.8578 48.0716 16.9968C48.1291 17.1358 48.2266 17.256 48.3525 17.3431C48.4752 17.4279 48.6199 17.478 48.7704 17.4877C48.9209 17.4974 49.0712 17.4663 49.2044 17.398L53.3588 15.3038L57.4969 17.4059C57.6108 17.468 57.7394 17.5004 57.8701 17.5C58.042 17.5006 58.2097 17.4484 58.3489 17.351C58.4748 17.2638 58.5722 17.1436 58.6297 17.0046C58.6872 16.8657 58.7024 16.7137 58.6734 16.5666L57.862 12.1115L61.2131 8.97411C61.3302 8.87817 61.4168 8.75206 61.4628 8.61045C61.5088 8.46883 61.5122 8.31751 61.4727 8.17407ZM56.4827 11.3115C56.3875 11.4004 56.3163 11.5106 56.2753 11.6323C56.2343 11.7539 56.2247 11.8835 56.2474 12.0095L56.8316 15.296L53.7807 13.7273C53.6633 13.6668 53.5324 13.6352 53.3994 13.6352C53.2664 13.6352 53.1354 13.6668 53.018 13.7273L49.9672 15.296L50.5514 12.0095C50.574 11.8835 50.5644 11.7539 50.5234 11.6323C50.4824 11.5106 50.4112 11.4004 50.3161 11.3115L47.8819 8.95842L51.2978 8.47997C51.4293 8.4623 51.5542 8.41373 51.6618 8.33851C51.7693 8.2633 51.856 8.16375 51.9145 8.04858L53.3588 5.0602L54.8842 8.05642C54.9427 8.17159 55.0295 8.27115 55.137 8.34636C55.2445 8.42157 55.3694 8.47014 55.5009 8.48781L58.9168 8.96627L56.4827 11.3115Z" fill="#F05340"/>
    <path d="M56.4827 11.3115C56.3875 11.4004 56.3163 11.5106 56.2753 11.6323C56.2343 11.7539 56.2247 11.8835 56.2474 12.0095L56.8316 15.296L53.7807 13.7273C53.6633 13.6668 53.5324 13.6352 53.3994 13.6352C53.2664 13.6352 53.1354 13.6668 53.018 13.7273L49.9672 15.296L50.5514 12.0095C50.574 11.8835 50.5644 11.7539 50.5234 11.6323C50.4824 11.5106 50.4112 11.4004 50.3161 11.3115L47.8819 8.95842L51.2978 8.47997C51.4293 8.4623 51.5542 8.41373 51.6618 8.33851C51.7693 8.2633 51.856 8.16375 51.9145 8.04858L53.3588 5.0602L54.8842 8.05642C54.9427 8.17159 55.0295 8.27115 55.137 8.34636C55.2445 8.42157 55.3694 8.47014 55.5009 8.48781L58.9168 8.96627L56.4827 11.3115Z" fill="#F05340"/>
    <path d="M56.4827 11.3115C56.3875 11.4004 56.3163 11.5106 56.2753 11.6323C56.2343 11.7539 56.2247 11.8835 56.2474 12.0095L56.8316 15.296L53.7807 13.7273C53.6633 13.6668 53.5324 13.6352 53.3994 13.6352C53.2664 13.6352 53.1354 13.6668 53.018 13.7273L49.9672 15.296L50.5514 12.0095C50.574 11.8835 50.5644 11.7539 50.5234 11.6323C50.4824 11.5106 50.4112 11.4004 50.3161 11.3115L47.8819 8.95842L51.2978 8.47997C51.4293 8.4623 51.5542 8.41373 51.6618 8.33851C51.7693 8.2633 51.856 8.16375 51.9145 8.04858L53.3588 5.0602L54.8842 8.05642C54.9427 8.17159 55.0295 8.27115 55.137 8.34636C55.2445 8.42157 55.3694 8.47014 55.5009 8.48781L58.9168 8.96627L56.4827 11.3115Z" fill="#F05340"/>
    <path d="M83.4727 8.17407C83.4215 8.03061 83.3283 7.90459 83.2044 7.81131C83.0806 7.71804 82.9314 7.6615 82.7749 7.64856L78.1581 6.99755L76.089 2.94246C76.0226 2.80985 75.9189 2.69801 75.7897 2.61976C75.6606 2.5415 75.5112 2.5 75.3588 2.5C75.2064 2.5 75.057 2.5415 74.9279 2.61976C74.7987 2.69801 74.695 2.80985 74.6285 2.94246L72.5595 6.98971L67.9426 7.64856C67.7925 7.66919 67.6513 7.7301 67.5351 7.82438C67.4189 7.91865 67.3324 8.04252 67.2854 8.18192C67.2424 8.31814 67.2385 8.46312 67.2742 8.6013C67.31 8.73949 67.384 8.86566 67.4882 8.96627L70.8393 12.1037L70.0279 16.5588C69.999 16.7058 70.0141 16.8578 70.0716 16.9968C70.1291 17.1358 70.2266 17.256 70.3525 17.3431C70.4752 17.4279 70.6199 17.478 70.7704 17.4877C70.9209 17.4974 71.0712 17.4663 71.2044 17.398L75.3588 15.3038L79.4969 17.4059C79.6108 17.468 79.7394 17.5004 79.8701 17.5C80.042 17.5006 80.2097 17.4484 80.3489 17.351C80.4748 17.2638 80.5722 17.1436 80.6297 17.0046C80.6872 16.8657 80.7024 16.7137 80.6734 16.5666L79.862 12.1115L83.2131 8.97411C83.3302 8.87817 83.4168 8.75206 83.4628 8.61045C83.5088 8.46883 83.5122 8.31751 83.4727 8.17407ZM78.4827 11.3115C78.3875 11.4004 78.3163 11.5106 78.2753 11.6323C78.2343 11.7539 78.2247 11.8835 78.2474 12.0095L78.8316 15.296L75.7807 13.7273C75.6633 13.6668 75.5324 13.6352 75.3994 13.6352C75.2664 13.6352 75.1354 13.6668 75.018 13.7273L71.9672 15.296L72.5514 12.0095C72.574 11.8835 72.5644 11.7539 72.5234 11.6323C72.4824 11.5106 72.4112 11.4004 72.3161 11.3115L69.8819 8.95842L73.2978 8.47997C73.4293 8.4623 73.5542 8.41373 73.6618 8.33851C73.7693 8.2633 73.856 8.16375 73.9145 8.04858L75.3588 5.0602L76.8842 8.05642C76.9427 8.17159 77.0295 8.27115 77.137 8.34636C77.2445 8.42157 77.3694 8.47014 77.5009 8.48781L80.9168 8.96627L78.4827 11.3115Z" fill="#F05340"/>
    <path d="M83.4727 8.17407C83.4215 8.03061 83.3283 7.90459 83.2044 7.81131C83.0806 7.71804 82.9314 7.6615 82.7749 7.64856L78.1581 6.99755L76.089 2.94246C76.0226 2.80985 75.9189 2.69801 75.7897 2.61976C75.6606 2.5415 75.5112 2.5 75.3588 2.5C75.2064 2.5 75.057 2.5415 74.9279 2.61976C74.7987 2.69801 74.695 2.80985 74.6285 2.94246L72.5595 6.98971L67.9426 7.64856C67.7925 7.66919 67.6513 7.7301 67.5351 7.82438C67.4189 7.91865 67.3324 8.04252 67.2854 8.18192C67.2424 8.31814 67.2385 8.46312 67.2742 8.6013C67.31 8.73949 67.384 8.86566 67.4882 8.96627L70.8393 12.1037L70.0279 16.5588C69.999 16.7058 70.0141 16.8578 70.0716 16.9968C70.1291 17.1358 70.2266 17.256 70.3525 17.3431C70.4752 17.4279 70.6199 17.478 70.7704 17.4877C70.9209 17.4974 71.0712 17.4663 71.2044 17.398L75.3588 15.3038L79.4969 17.4059C79.6108 17.468 79.7394 17.5004 79.8701 17.5C80.042 17.5006 80.2097 17.4484 80.3489 17.351C80.4748 17.2638 80.5722 17.1436 80.6297 17.0046C80.6872 16.8657 80.7024 16.7137 80.6734 16.5666L79.862 12.1115L83.2131 8.97411C83.3302 8.87817 83.4168 8.75206 83.4628 8.61045C83.5088 8.46883 83.5122 8.31751 83.4727 8.17407ZM78.4827 11.3115C78.3875 11.4004 78.3163 11.5106 78.2753 11.6323C78.2343 11.7539 78.2247 11.8835 78.2474 12.0095L78.8316 15.296L75.7807 13.7273C75.6633 13.6668 75.5324 13.6352 75.3994 13.6352C75.2664 13.6352 75.1354 13.6668 75.018 13.7273L71.9672 15.296L72.5514 12.0095C72.574 11.8835 72.5644 11.7539 72.5234 11.6323C72.4824 11.5106 72.4112 11.4004 72.3161 11.3115L69.8819 8.95842L73.2978 8.47997C73.4293 8.4623 73.5542 8.41373 73.6618 8.33851C73.7693 8.2633 73.856 8.16375 73.9145 8.04858L75.3588 5.0602L76.8842 8.05642C76.9427 8.17159 77.0295 8.27115 77.137 8.34636C77.2445 8.42157 77.3694 8.47014 77.5009 8.48781L80.9168 8.96627L78.4827 11.3115Z" fill="#F05340"/>
    <path d="M78.4827 11.3115C78.3875 11.4004 78.3163 11.5106 78.2753 11.6323C78.2343 11.7539 78.2247 11.8835 78.2474 12.0095L78.8316 15.296L75.7807 13.7273C75.6633 13.6668 75.5324 13.6352 75.3994 13.6352C75.2664 13.6352 75.1354 13.6668 75.018 13.7273L71.9672 15.296L72.5514 12.0095C72.574 11.8835 72.5644 11.7539 72.5234 11.6323C72.4824 11.5106 72.4112 11.4004 72.3161 11.3115L69.8819 8.95842L73.2978 8.47997C73.4293 8.4623 73.5542 8.41373 73.6618 8.33851C73.7693 8.2633 73.856 8.16375 73.9145 8.04858L75.3588 5.0602L76.8842 8.05642C76.9427 8.17159 77.0295 8.27115 77.137 8.34636C77.2445 8.42157 77.3694 8.47014 77.5009 8.48781L80.9168 8.96627L78.4827 11.3115Z" fill="#F05340"/>
    <path d="M78.4827 11.3115C78.3875 11.4004 78.3163 11.5106 78.2753 11.6323C78.2343 11.7539 78.2247 11.8835 78.2474 12.0095L78.8316 15.296L75.7807 13.7273C75.6633 13.6668 75.5324 13.6352 75.3994 13.6352C75.2664 13.6352 75.1354 13.6668 75.018 13.7273L71.9672 15.296L72.5514 12.0095C72.574 11.8835 72.5644 11.7539 72.5234 11.6323C72.4824 11.5106 72.4112 11.4004 72.3161 11.3115L69.8819 8.95842L73.2978 8.47997C73.4293 8.4623 73.5542 8.41373 73.6618 8.33851C73.7693 8.2633 73.856 8.16375 73.9145 8.04858L75.3588 5.0602L76.8842 8.05642C76.9427 8.17159 77.0295 8.27115 77.137 8.34636C77.2445 8.42157 77.3694 8.47014 77.5009 8.48781L80.9168 8.96627L78.4827 11.3115Z" fill="#F05340"/>
    <path d="M105.473 8.17407C105.422 8.03061 105.328 7.90459 105.204 7.81131C105.081 7.71804 104.931 7.6615 104.775 7.64856L100.158 6.99755L98.089 2.94246C98.0226 2.80985 97.9189 2.69801 97.7897 2.61976C97.6606 2.5415 97.5112 2.5 97.3588 2.5C97.2064 2.5 97.057 2.5415 96.9279 2.61976C96.7987 2.69801 96.695 2.80985 96.6285 2.94246L94.5595 6.98971L89.9426 7.64856C89.7925 7.66919 89.6513 7.7301 89.5351 7.82438C89.4189 7.91865 89.3324 8.04252 89.2854 8.18192C89.2424 8.31814 89.2385 8.46312 89.2742 8.6013C89.31 8.73949 89.384 8.86566 89.4882 8.96627L92.8393 12.1037L92.0279 16.5588C91.999 16.7058 92.0141 16.8578 92.0716 16.9968C92.1291 17.1358 92.2266 17.256 92.3525 17.3431C92.4752 17.4279 92.6199 17.478 92.7704 17.4877C92.9209 17.4974 93.0712 17.4663 93.2044 17.398L97.3588 15.3038L101.497 17.4059C101.611 17.468 101.739 17.5004 101.87 17.5C102.042 17.5006 102.21 17.4484 102.349 17.351C102.475 17.2638 102.572 17.1436 102.63 17.0046C102.687 16.8657 102.702 16.7137 102.673 16.5666L101.862 12.1115L105.213 8.97411C105.33 8.87817 105.417 8.75206 105.463 8.61045C105.509 8.46883 105.512 8.31751 105.473 8.17407ZM100.483 11.3115C100.388 11.4004 100.316 11.5106 100.275 11.6323C100.234 11.7539 100.225 11.8835 100.247 12.0095L100.832 15.296L97.7807 13.7273C97.6633 13.6668 97.5324 13.6352 97.3994 13.6352C97.2664 13.6352 97.1354 13.6668 97.018 13.7273L93.9672 15.296L94.5514 12.0095C94.574 11.8835 94.5644 11.7539 94.5234 11.6323C94.4824 11.5106 94.4112 11.4004 94.3161 11.3115L91.8819 8.95842L95.2978 8.47997C95.4293 8.4623 95.5542 8.41373 95.6618 8.33851C95.7693 8.2633 95.856 8.16375 95.9145 8.04858L97.3588 5.0602L98.8842 8.05642C98.9427 8.17159 99.0295 8.27115 99.137 8.34636C99.2445 8.42157 99.3694 8.47014 99.5009 8.48781L102.917 8.96627L100.483 11.3115Z" fill="#F05340"/>
    <path d="M100.483 11.3115C100.388 11.4004 100.316 11.5106 100.275 11.6323C100.234 11.7539 100.225 11.8835 100.247 12.0095L100.832 15.296L97.7807 13.7273C97.6633 13.6668 97.5324 13.6352 97.3994 13.6352C97.2664 13.6352 97.1354 13.6668 97.018 13.7273L93.9672 15.296L94.5514 12.0095C94.574 11.8835 94.5644 11.7539 94.5234 11.6323C94.4824 11.5106 94.4112 11.4004 94.3161 11.3115L91.8819 8.95842L95.2978 8.47997C95.4293 8.4623 95.5542 8.41373 95.6618 8.33851C95.7693 8.2633 95.856 8.16375 95.9145 8.04858L97.3588 5.0602L98.8842 8.05642C98.9427 8.17159 99.0295 8.27115 99.137 8.34636C99.2445 8.42157 99.3694 8.47014 99.5009 8.48781L102.917 8.96627L100.483 11.3115Z" fill="#F05340"/>
</svg>
